<svg xmlns="http://www.w3.org/2000/svg"  viewBox="0 0 50 50" width="50px" height="50px" baseProfile="basic"><polygon fill="#66e1ff" points="26,11.721 19,37.702 22,39.434 24,38.279 31,12.298 28,10.566"/><polygon fill="#66e1ff" points="18,10.566 16,7.102 4,14.03 14,31.351 18,29.041 10,15.185"/><polygon fill="#66e1ff" points="32,39.434 34,42.898 46,35.97 36,18.649 32,20.959 40,34.815"/><rect width="2.309" height="4" x="14.845" y="7.412" fill="#52b4cc" transform="rotate(-30 16 9.412)"/><polygon fill="#5ccae6" points="26,11.721 28,10.566 31,12.298 29,13.453"/><polygon fill="#479db3" points="22,39.434 24,38.279 31,12.298 29,13.453"/><rect width="2.309" height="16" x="11.845" y="14.691" fill="#52b4cc" transform="rotate(-30 12.999 22.69)"/><rect width="2.309" height="20" x="38.845" y="17.887" fill="#52b4cc" transform="rotate(-30 39.998 27.888)"/></svg>