<svg xmlns="http://www.w3.org/2000/svg" xmlns:xlink="http://www.w3.org/1999/xlink" viewBox="0,0,256,256" width="50px" height="50px" fill-rule="none"><g fill="none" fill-rule="none" stroke="none" stroke-width="1" stroke-linecap="butt" stroke-linejoin="miter" stroke-miterlimit="10" stroke-dasharray="" stroke-dashoffset="0" font-family="none" font-weight="none" font-size="none" text-anchor="none" style="mix-blend-mode: normal"><g transform="scale(5.12,5.12)"><path d="M41,20.38l-0.83,1.16l0.83,1.15v5.77l-0.83,1.16l0.83,1.15v5.78l-4.69,6.53l-11.31,2.7l-11.31,-2.7l-4.69,-6.53v-5.78l0.83,-1.15l-0.83,-1.16v-5.77l0.83,-1.15l-0.83,-1.16v-5.77l4.68,-6.53l11.32,-2.71l11.31,2.71l4.69,6.53z" fill-opacity="0.61961" fill="#577be6" fill-rule="nonzero"></path><path d="M25,23.845v5.774l11.314,-2.706v-5.773z" fill-opacity="0.65098" fill="#4d6dcc" fill-rule="nonzero"></path><path d="M36.314,21.14l4.686,-6.532v5.773l-4.686,6.532z" fill-opacity="0.65882" fill="#4460b3" fill-rule="nonzero"></path><path d="M25,23.845v5.774l-11.314,-2.706v-5.773z" fill-opacity="0.67843" fill="#5c82f2" fill-rule="nonzero"></path><path d="M13.686,21.14l-4.686,-6.532v5.773l4.686,6.532z" fill-opacity="0.8" fill="#6189ff" fill-rule="nonzero"></path><path d="M25,40.011v5.774l11.314,-2.706v-5.774z" fill-opacity="0.65098" fill="#4d6dcc" fill-rule="nonzero"></path><path d="M36.314,37.305l4.686,-6.531v5.773l-4.686,6.532z" fill-opacity="0.65882" fill="#4460b3" fill-rule="nonzero"></path><path d="M25,40.011v5.774l-11.314,-2.706v-5.774z" fill-opacity="0.67843" fill="#5c82f2" fill-rule="nonzero"></path><path d="M13.686,37.305l-4.686,-6.531v5.773l4.686,6.532z" fill-opacity="0.8" fill="#6189ff" fill-rule="nonzero"></path><path d="M25,31.928v5.774l11.314,-2.706v-5.773z" fill-opacity="0.65098" fill="#4d6dcc" fill-rule="nonzero"></path><path d="M36.314,29.223l4.686,-6.532v5.773l-4.686,6.532z" fill-opacity="0.65882" fill="#4460b3" fill-rule="nonzero"></path><path d="M25,31.928v5.774l-11.314,-2.706v-5.773z" fill-opacity="0.67843" fill="#5c82f2" fill-rule="nonzero"></path><path d="M13.686,29.223l-4.686,-6.532v5.773l4.686,6.532z" fill-opacity="0.8" fill="#6189ff" fill-rule="nonzero"></path><path d="M16.454,14.632l6.929,4l10.392,-6l-1.732,-1l-8.66,5l-5.196,-3z" fill="#5ccae6" fill-rule="evenodd"></path></g></g></svg>