<svg xmlns="http://www.w3.org/2000/svg"  viewBox="0 0 24 24" width="24px" height="24px"><path d="M 12 0 C 5.383 0 0 5.383 0 12 C 0 17.050086 3.1399151 21.372486 7.5664062 23.140625 C 7.625085 23.17745 7.6884377 23.198906 7.7539062 23.208984 C 9.0762339 23.711701 10.503424 24 12 24 C 18.617 24 24 18.617 24 12 C 24 6.9734394 20.889953 2.6664445 16.496094 0.8828125 C 16.459258 0.86590548 16.423544 0.84921145 16.384766 0.84179688 C 15.024508 0.30529236 13.548624 0 12 0 z M 12 1 C 13.433472 1 14.799655 1.2840356 16.056641 1.7851562 C 16.358725 2.0205877 16.664043 2.3001679 16.964844 2.6289062 C 17.906844 3.6529063 18.601297 4.9372656 19.029297 6.4472656 C 19.276297 7.3102656 19.428187 8.2595156 19.492188 9.3535156 C 19.545187 10.139516 19.532125 10.834469 19.453125 11.480469 C 19.307125 12.709469 18.9135 13.877328 18.3125 14.861328 C 17.8535 15.624328 17.270172 16.273969 16.576172 16.792969 C 15.509898 17.606142 14.310192 17.991739 13.201172 17.898438 C 14.158962 17.215053 14.946836 16.296731 15.433594 15.232422 C 15.905594 14.226422 16.132375 13.100719 16.109375 11.886719 C 16.098375 10.769719 15.871125 9.6897188 15.453125 8.7617188 C 14.957125 7.6827188 14.188297 6.750625 13.154297 6.015625 C 12.936297 5.876625 12.709609 5.7302812 12.474609 5.6132812 L 12.332031 5.5429688 C 12.316031 5.5339687 12.303062 5.5255313 12.289062 5.5195312 C 12.245062 5.4895312 12.196484 5.4652656 12.146484 5.4472656 L 12.148438 5.4453125 C 11.791438 5.3263125 11.441141 5.2460781 11.119141 5.2050781 C 10.187141 5.0730781 9.2371875 5.1749531 8.3671875 5.5019531 C 7.7621875 5.7249531 7.1638594 6.0557969 6.6308594 6.4667969 C 5.8698594 7.0677969 5.2208125 7.8272031 4.7578125 8.6582031 C 4.1418125 9.7222031 3.7377969 11.022922 3.5917969 12.419922 C 3.5177969 13.160922 3.5000156 13.864359 3.5410156 14.568359 C 3.6070156 15.754359 3.772875 16.821078 4.046875 17.830078 C 4.333565 18.885072 4.774842 19.852334 5.3203125 20.71875 C 2.6998225 18.70621 1 15.551593 1 12 C 1 5.935 5.935 1 12 1 z M 18.714844 3.3066406 C 21.315762 5.3203941 23 8.4639503 23 12 C 23 18.065 18.065 23 12 23 C 10.603122 23 9.2715213 22.72708 8.0410156 22.25 C 7.6951612 21.992666 7.3819851 21.722328 7.0957031 21.427734 C 6.1427031 20.413734 5.4217188 19.080313 5.0117188 17.570312 C 4.7567188 16.628312 4.6020625 15.627719 4.5390625 14.511719 C 4.5020625 13.859719 4.5188906 13.208484 4.5878906 12.521484 C 4.7188906 11.264484 5.0759531 10.102344 5.6269531 9.1523438 C 6.0299531 8.4283437 6.5901406 7.7718594 7.2441406 7.2558594 C 7.6931406 6.9098594 8.2027969 6.6275 8.7167969 6.4375 C 9.3160074 6.2120628 9.9611995 6.1233872 10.611328 6.1640625 C 10.561399 6.2005463 10.509754 6.2297917 10.460938 6.2675781 C 9.7449375 6.8315781 9.1371719 7.5430781 8.7011719 8.3300781 C 8.0841719 9.4620781 7.7765469 10.815328 7.8105469 12.236328 C 7.8215469 13.168328 7.9922188 14.077359 8.3242188 14.943359 C 8.5932188 15.622359 8.9674531 16.253219 9.4394531 16.824219 C 9.8394531 17.293219 10.283188 17.694906 10.742188 18.003906 C 11.002187 18.194906 11.289359 18.361375 11.568359 18.484375 C 11.808359 18.609375 12.085109 18.707156 12.412109 18.785156 C 12.774109 18.873156 13.146437 18.917969 13.523438 18.917969 C 14.756437 18.917969 16.043641 18.457844 17.181641 17.589844 C 17.976641 16.996844 18.645922 16.252859 19.169922 15.380859 C 19.843922 14.277859 20.285219 12.969609 20.449219 11.599609 C 20.534219 10.892609 20.547234 10.135063 20.490234 9.2890625 C 20.421234 8.1250625 20.259187 7.105875 19.992188 6.171875 C 19.690833 5.111388 19.254499 4.1605319 18.714844 3.3066406 z M 11.546875 6.3222656 C 11.618082 6.3413416 11.683199 6.3462811 11.755859 6.3691406 C 11.804859 6.4031406 11.853719 6.4235469 11.886719 6.4355469 C 11.894719 6.4405469 11.901203 6.4442656 11.908203 6.4472656 L 12.025391 6.5078125 C 12.231391 6.6108125 12.427437 6.7359531 12.648438 6.8769531 C 13.466437 7.4619531 14.122922 8.2577813 14.544922 9.1757812 C 14.904922 9.9757813 15.099375 10.916391 15.109375 11.900391 C 15.129375 12.964391 14.934391 13.9415 14.525391 14.8125 C 14.030391 15.8935 13.188344 16.81425 12.152344 17.40625 C 12.080566 17.447223 12.026382 17.505519 11.984375 17.570312 C 11.753671 17.46677 11.528148 17.339974 11.318359 17.185547 C 10.916359 16.914547 10.541078 16.574641 10.205078 16.181641 C 9.8050781 15.696641 9.4868125 15.156078 9.2578125 14.580078 C 8.9708125 13.829078 8.8195469 13.03775 8.8105469 12.21875 C 8.7805469 10.96675 9.0461719 9.7875 9.5761719 8.8125 C 9.9461719 8.1435 10.466219 7.5356406 11.074219 7.0566406 C 11.280219 6.8976406 11.503266 6.7498594 11.697266 6.6308594 L 11.546875 6.3222656 z"/></svg>