<svg xmlns="http://www.w3.org/2000/svg"  viewBox="0 0 80 80" width="80px" height="80px"><path fill="#a3b7cc" d="M65,48H32.4C21.1,48,12,38.9,12,27.6h2C14,37.8,22.2,46,32.4,46H65V48z"/><path fill="#a3b7cc" d="M12 13H14V67H12z"/><path fill="#8bb7f0" d="M13,21.5c-4.7,0-8.5-3.8-8.5-8.5S8.3,4.5,13,4.5s8.5,3.8,8.5,8.5S17.7,21.5,13,21.5z"/><path fill="#4e7ab5" d="M13,5c4.4,0,8,3.6,8,8s-3.6,8-8,8s-8-3.6-8-8S8.6,5,13,5 M13,4c-5,0-9,4-9,9s4,9,9,9s9-4,9-9 S18,4,13,4L13,4z"/><path fill="#8bb7f0" d="M13,75.5c-4.7,0-8.5-3.8-8.5-8.5s3.8-8.5,8.5-8.5s8.5,3.8,8.5,8.5S17.7,75.5,13,75.5z"/><path fill="#4e7ab5" d="M13,59c4.4,0,8,3.6,8,8s-3.6,8-8,8s-8-3.6-8-8S8.6,59,13,59 M13,58c-5,0-9,4-9,9s4,9,9,9s9-4,9-9 S18,58,13,58L13,58z"/><g><path fill="#8bb7f0" d="M67,55.5c-4.7,0-8.5-3.8-8.5-8.5s3.8-8.5,8.5-8.5s8.5,3.8,8.5,8.5S71.7,55.5,67,55.5z"/><path fill="#4e7ab5" d="M67,39c4.4,0,8,3.6,8,8s-3.6,8-8,8s-8-3.6-8-8S62.6,39,67,39 M67,38c-5,0-9,4-9,9s4,9,9,9s9-4,9-9 S72,38,67,38L67,38z"/></g></svg>