<svg xmlns="http://www.w3.org/2000/svg" xmlns:xlink="http://www.w3.org/1999/xlink" viewBox="0,0,256,256" width="24px" height="24px" fill-rule="nonzero"><g fill="none" fill-rule="nonzero" stroke="none" stroke-width="1" stroke-linecap="butt" stroke-linejoin="miter" stroke-miterlimit="10" stroke-dasharray="" stroke-dashoffset="0" font-family="none" font-size="none"  style="mix-blend-mode: normal"><g transform="scale(10.66667,10.66667)"><path d="M9.413,21.027c-0.615,0.356 -0.732,0.4 -1.311,0.604c-0.14,0.048 -0.352,0.133 0.081,0.381l2.899,1.738c0.276,0.163 0.597,0.248 0.911,0.248l0.002,0.002c0.32,0 0.634,-0.086 0.912,-0.248l8.682,-5.076c0.563,-0.334 0.911,-0.948 0.911,-1.606v-10.148c0,-0.662 -0.347,-1.276 -0.911,-1.604l-8.682,-5.082c-0.546,-0.313 -1.274,-0.313 -1.824,0l-8.672,5.077c-0.563,0.329 -0.911,0.947 -0.911,1.604v10.149c0,0.662 0.347,1.276 0.911,1.604l2.275,1.329c1.101,0.552 1.495,0.552 1.997,0.552c1.631,0 2.571,-1 2.571,-2.743v-10.023c0,-0.143 -0.117,-0.252 -0.254,-0.252h-1.099c-0.142,0 -0.254,0.109 -0.254,0.252v10.018c0,0.776 -0.79,1.543 -2.082,0.891l-2.379,-1.39c-0.083,-0.042 -0.136,-0.138 -0.136,-0.234v-10.148c0,-0.098 0.053,-0.194 0.136,-0.242l8.672,-5.077h0.267l8.677,5.072c0.084,0.052 0.136,0.142 0.136,0.242v10.153c0,0.095 -0.051,0.19 -0.131,0.237l-8.682,5.077h-0.267l-2.228,-1.337l-0.217,-0.02z" fill-opacity="0.54118" fill="#8cc03e"></path><path d="M9.413,21.027c-0.615,0.356 -0.732,0.4 -1.311,0.604c-0.14,0.048 -0.352,0.133 0.081,0.381l2.899,1.738c0.276,0.163 0.597,0.248 0.911,0.248l0.002,0.002c0.002,0 0.003,0 0.005,0v-1.615h-0.142l-2.228,-1.338l-0.217,-0.02zM11.997,0c-0.319,0 -0.639,0.078 -0.914,0.235l-8.672,5.078c-0.563,0.329 -0.911,0.947 -0.911,1.604v10.149c0,0.662 0.347,1.276 0.911,1.604l2.275,1.329c1.101,0.552 1.495,0.552 1.997,0.552c1.631,0 2.571,-1 2.571,-2.743v-10.023c0,-0.143 -0.117,-0.252 -0.254,-0.252h-1.099c-0.142,0 -0.254,0.109 -0.254,0.252v10.018c0,0.571 -0.427,1.137 -1.167,1.137c-0.266,0 -0.573,-0.073 -0.915,-0.246l-2.379,-1.39c-0.083,-0.042 -0.136,-0.138 -0.136,-0.234v-10.148c0,-0.098 0.053,-0.194 0.136,-0.242l8.672,-5.077h0.142v-1.603c-0.001,0 -0.002,0 -0.003,0z" fill-opacity="0.50196" fill="#7aa736"></path><path d="M14.674,15.47c-2.299,0 -2.802,-0.587 -2.97,-1.744c-0.019,-0.124 -0.123,-0.214 -0.249,-0.214h-1.123c-0.142,0 -0.249,0.113 -0.249,0.252c0,1.482 0.795,3.248 4.597,3.248c2.744,-0.006 4.325,-1.105 4.325,-3.02l-0.003,0.001c0,-1.9 -1.269,-2.404 -3.935,-2.763c-2.698,-0.361 -2.97,-0.547 -2.97,-1.186c0,-0.528 0.231,-1.233 2.229,-1.233c1.781,0 2.44,0.391 2.712,1.609c0.023,0.115 0.128,0.2 0.245,0.2h1.128l0.184,-0.081l0.065,-0.195c-0.173,-2.1 -1.551,-3.076 -4.333,-3.076c-2.476,0 -3.953,1.058 -3.953,2.834c0,1.924 1.471,2.457 3.845,2.694c2.844,0.282 3.064,0.706 3.064,1.273c0,0.982 -0.78,1.401 -2.609,1.401z" fill-opacity="0.54118" fill="#8cc03e"></path><path d="M11.455,13.512h-1.123c-0.142,0 -0.249,0.113 -0.249,0.252c0,1.464 0.776,3.206 4.461,3.247v-1.542c-2.188,-0.022 -2.675,-0.609 -2.84,-1.744c-0.019,-0.124 -0.123,-0.213 -0.249,-0.213zM14.327,7.269c-2.476,0 -3.953,1.058 -3.953,2.834c0,1.924 1.471,2.457 3.845,2.694c0.112,0.011 0.221,0.022 0.325,0.034v-1.673c-2.211,-0.317 -2.446,-0.519 -2.446,-1.113c0,-0.528 0.231,-1.233 2.229,-1.233c0.075,0 0.147,0.001 0.218,0.002v-1.543c-0.072,-0.002 -0.145,-0.002 -0.218,-0.002z" fill-opacity="0.50196" fill="#7aa736"></path></g></g></svg>