<svg xmlns="http://www.w3.org/2000/svg"  viewBox="0 0 96 96" width="96px" height="96px" baseProfile="basic"><path fill="#4d4dff" d="M69,65H54c-1.657,0-3-1.343-3-3s1.343-3,3-3h15c1.657,0,3,1.343,3,3S70.657,65,69,65z" opacity=".3"/><path fill="#4d4dff" d="M69,64H54c-1.104,0-2-0.896-2-2s0.896-2,2-2h15c1.104,0,2,0.896,2,2S70.104,64,69,64z" opacity=".3"/><path fill="#4d4dff" d="M37.002,60.001c-1.141,0-2.231-0.654-2.734-1.761c-0.685-1.508-0.017-3.287,1.492-3.972	l10.742-4.875l-10.466-3.552c-1.569-0.533-2.409-2.236-1.876-3.805c0.533-1.569,2.238-2.408,3.805-1.876l10.559,3.584	c2.358,0.883,3.847,2.915,3.974,5.335s-1.141,4.597-3.308,5.681c-0.034,0.017-0.068,0.033-0.102,0.049L38.24,59.732	C37.838,59.914,37.417,60,37.002,60.001z M47.847,52.077h0.01H47.847z" opacity=".3"/><path fill="#4d4dff" d="M37.001,59c-0.76,0-1.487-0.436-1.822-1.174c-0.457-1.006-0.011-2.191,0.995-2.648	l10.847-4.923c0.461-0.232,0.494-0.718,0.483-0.915c-0.01-0.196-0.094-0.676-0.647-0.884l-10.5-3.563	c-1.046-0.355-1.606-1.491-1.251-2.537c0.355-1.044,1.489-1.604,2.537-1.251l10.559,3.584c1.95,0.73,3.191,2.424,3.296,4.441	c0.106,2.017-0.951,3.831-2.757,4.734l-10.915,4.956C37.559,58.943,37.278,59,37.001,59z" opacity=".3"/><path fill="#e0e722" d="M80,79H24c-1.657,0-3-1.343-3-3c0-0.155,0.012-0.307,0.034-0.455	C19.816,77.611,17.567,79,15,79h-3c-1.657,0-3-1.343-3-3s1.343-3,3-3h3c0.551,0,1-0.449,1-1V35c0-3.86,3.14-7,7-7h57	c3.86,0,7,3.14,7,7v37C87,75.86,83.86,79,80,79z M23,34c-0.551,0-1,0.449-1,1v37c0,0.731-0.113,1.437-0.322,2.1	C22.229,73.428,23.064,73,24,73h56c0.551,0,1-0.449,1-1V35c0-0.551-0.449-1-1-1H23z" opacity=".3"/><path fill="#e0e722" d="M80,78H24c-1.104,0-2-0.896-2-2s0.896-2,2-2h56c1.103,0,2-0.897,2-2V35	c0-1.103-0.897-2-2-2H23c-1.103,0-2,0.897-2,2v37c0,3.309-2.691,6-6,6h-3c-1.104,0-2-0.896-2-2s0.896-2,2-2h3c1.103,0,2-0.897,2-2	V35c0-3.309,2.691-6,6-6h57c3.309,0,6,2.691,6,6v37C86,75.309,83.309,78,80,78z" opacity=".3"/><path fill="#ffad00" d="M11,74c-1.657,0-3-1.343-3-3V22c0-3.86,3.14-7,7-7h21.888	c1.273,0,2.523,0.348,3.613,1.005l5.684,3.426c0.046,0.028,0.092,0.058,0.137,0.088C47.031,20,47.104,20,47.322,20H74	c3.309,0,6,2.691,6,6c0,1.657-1.343,3-3,3s-3-1.343-3-3H47.322c-1.932,0-3.188-0.72-4.302-1.472l-5.616-3.385	C37.248,21.05,37.07,21,36.888,21H15c-0.551,0-1,0.449-1,1v49C14,72.657,12.657,74,11,74z" opacity=".3"/><path fill="#ffad00" d="M11,73c-1.104,0-2-0.896-2-2V22c0-3.309,2.691-6,6-6h21.888	c1.091,0,2.163,0.298,3.097,0.861l5.684,3.426c0.031,0.019,0.062,0.038,0.092,0.059C46.61,20.923,46.843,21,47.322,21H74	c2.757,0,5,2.243,5,5c0,1.104-0.896,2-2,2s-2-0.896-2-2c0-0.551-0.449-1-1-1H47.322c-1.665,0-2.734-0.618-3.764-1.314l-5.638-3.398	C37.608,20.099,37.251,20,36.888,20H15c-1.103,0-2,0.897-2,2v49C13,72.104,12.104,73,11,73z" opacity=".3"/><path fill="#4d4dff" d="M69,63H54c-0.552,0-1-0.448-1-1s0.448-1,1-1h15c0.552,0,1,0.448,1,1S69.552,63,69,63z"/><path fill="#4d4dff" d="M37,58c-0.38,0-0.744-0.218-0.911-0.587c-0.228-0.502-0.005-1.095,0.498-1.324l10.847-4.923	c0.699-0.351,1.112-1.059,1.069-1.877s-0.527-1.48-1.295-1.768l-10.529-3.574c-0.523-0.177-0.803-0.745-0.625-1.268	c0.177-0.523,0.744-0.802,1.268-0.625l10.559,3.584c1.542,0.578,2.535,1.933,2.62,3.546c0.084,1.614-0.76,3.065-2.206,3.788	l-10.881,4.939C37.279,57.971,37.139,58,37,58z"/><path fill="#e0e722" d="M80,77H24c-0.552,0-1-0.448-1-1s0.448-1,1-1h56c1.654,0,3-1.346,3-3V35c0-1.654-1.346-3-3-3H23	c-1.654,0-3,1.346-3,3v37c0,2.757-2.243,5-5,5h-3c-0.552,0-1-0.448-1-1s0.448-1,1-1h3c1.654,0,3-1.346,3-3V35c0-2.757,2.243-5,5-5	h57c2.757,0,5,2.243,5,5v37C85,74.757,82.757,77,80,77z"/><path fill="#ffad00" d="M11,72c-0.552,0-1-0.448-1-1V22c0-2.757,2.243-5,5-5h21.888c0.91,0,1.802,0.248,2.581,0.718	l5.684,3.426C46.111,21.793,46.546,22,47.322,22H74c2.206,0,4,1.794,4,4c0,0.552-0.448,1-1,1s-1-0.448-1-1c0-1.103-0.897-2-2-2	H47.322c-1.41,0-2.27-0.508-3.248-1.173l-5.638-3.396C37.969,19.149,37.434,19,36.888,19H15c-1.654,0-3,1.346-3,3v49	C12,71.552,11.552,72,11,72z"/></svg>