<svg xmlns="http://www.w3.org/2000/svg"  viewBox="0 0 24 24" width="24px" height="24px"><linearGradient id="AjhzotdoN6nf4izpU6stda" x1="-1741.026" x2="-1740.026" y1="-3100.405" y2="-3100.405" gradientTransform="matrix(6.2119 22.3594 22.3594 -6.2119 80148.07 19669.07)" gradientUnits="userSpaceOnUse"><stop offset="0" stop-color="#00cdd7"/><stop offset=".28" stop-color="#00cdd7"/><stop offset=".94" stop-color="#2086d7"/><stop offset="1" stop-color="#2086d7"/></linearGradient><path fill="url(#AjhzotdoN6nf4izpU6stda)" d="M17.339,19.737l-4.026,2.388L12,21.217v1.995L16.5,24L17.339,19.737L17.339,19.737z M13.312,0.412	L12,1.11v2.047l2.421-2.317L13.312,0.412L13.312,0.412z"/><linearGradient id="AjhzotdoN6nf4izpU6stdb" x1="-1736.938" x2="-1735.938" y1="-3114.425" y2="-3114.425" gradientTransform="scale(18.6489 -18.6489) rotate(-55.706 2078.582 -3201.358)" gradientUnits="userSpaceOnUse"><stop offset="0" stop-color="#fff045"/><stop offset=".14" stop-color="#fff045"/><stop offset=".37" stop-color="#00cdd7"/><stop offset="1" stop-color="#00cdd7"/></linearGradient><polygon fill="url(#AjhzotdoN6nf4izpU6stdb)" points="15.3,0 14.421,0.841 12,3.157 12,21.217 13.312,22.125 17.339,19.737 24,15.787 21.375,10.875 24,8.137 20.888,0.488 15.3,0"/><linearGradient id="AjhzotdoN6nf4izpU6stdc" x1="-1741.026" x2="-1740.026" y1="-3100.631" y2="-3100.631" gradientTransform="matrix(6.2119 22.3594 22.3594 -6.2119 80148.07 19669.07)" gradientUnits="userSpaceOnUse"><stop offset="0" stop-color="#00b2bb"/><stop offset=".28" stop-color="#00b2bb"/><stop offset=".94" stop-color="#1c75bb"/><stop offset="1" stop-color="#1c75bb"/></linearGradient><polygon fill="url(#AjhzotdoN6nf4izpU6stdc)" points="6,0.037 0,2.513 3.225,21.675 12,23.212 12,21.217 8.925,19.088 6.6,8.325 12,3.157 12,1.11 9.787,2.287 6,0.037"/><linearGradient id="AjhzotdoN6nf4izpU6stdd" x1="-1736.938" x2="-1735.938" y1="-3114.699" y2="-3114.699" gradientTransform="scale(18.6489 -18.6489) rotate(-55.706 2078.582 -3201.358)" gradientUnits="userSpaceOnUse"><stop offset="0" stop-color="#ded13c"/><stop offset=".14" stop-color="#ded13c"/><stop offset=".37" stop-color="#00b2bb"/><stop offset="1" stop-color="#00b2bb"/></linearGradient><polygon fill="url(#AjhzotdoN6nf4izpU6stdd)" points="12,3.157 6.6,8.325 8.925,19.088 12,21.217 12,3.157"/><polygon points="4.5,4.5 19.5,4.5 19.5,19.5 4.5,19.5 4.5,4.5"/><polygon fill="#212121" points="19.5,4.5 12,4.5 12,19.5 19.5,19.5 19.5,4.5"/><linearGradient id="AjhzotdoN6nf4izpU6stde" x1="-320.571" x2="-320.5" y1="-813.307" y2="-813.056" gradientTransform="translate(6282.094 15890.13) scale(19.5312)" gradientUnits="userSpaceOnUse"><stop offset=".28" stop-color="#00cdd7"/><stop offset=".94" stop-color="#2086d7"/></linearGradient><path fill="url(#AjhzotdoN6nf4izpU6stde)" d="M19.2,6.975l2.175,3.9L24,8.137l-1.913-4.762L19.2,6.975z"/><polygon fill="#FFF" points="5.925,16.688 11.55,16.688 11.55,17.625 5.925,17.625 5.925,16.688"/><polygon fill="#DEDEDE" points="8.866,16.688 5.925,16.688 5.925,17.625 8.866,17.625 8.866,16.688"/><path fill="#FFF" d="M13.275,11.776l0.787-0.976c0.563,0.45,1.125,0.75,1.838,0.75c0.562,0,0.899-0.225,0.899-0.6	c0-0.337-0.224-0.525-1.237-0.788c-1.237-0.337-2.025-0.675-2.025-1.912V8.213c0-1.125,0.901-1.875,2.138-1.875	c0.83-0.004,1.636,0.273,2.288,0.787l-0.713,1.05c-0.453-0.353-1.002-0.562-1.575-0.599c-0.487,0-0.787,0.224-0.787,0.562	c0,0.412,0.263,0.562,1.312,0.825c1.237,0.337,1.951,0.787,1.951,1.875c0,1.237-0.938,1.949-2.25,1.949	C14.937,12.752,14.013,12.395,13.275,11.776L13.275,11.776z"/><polygon fill="#FFF" points="12.075,6.45 11.138,10.05 10.088,6.45 9.037,6.45 7.987,10.05 7.05,6.45 5.588,6.45 7.388,12.675 8.55,12.675 9.563,9.075 10.575,12.675 11.737,12.675 13.537,6.45 12.075,6.45"/><path fill="#DEDEDE" d="M17.572,9.562H14.11c0.351,0.27,0.848,0.435,1.452,0.599c1.013,0.263,1.237,0.451,1.237,0.788	c0,0.375-0.337,0.6-0.899,0.6c-0.713,0-1.275-0.3-1.838-0.75l-0.787,0.976c0.737,0.62,1.661,0.977,2.625,1.011	c1.313,0,2.25-0.711,2.25-1.949C18.151,10.258,17.948,9.859,17.572,9.562L17.572,9.562z"/><path fill="#DEDEDE" d="M9.426,9.562H8.13L7.987,10.05L7.86,9.562H6.488l0.9,3.113H8.55L9.426,9.562L9.426,9.562z M12.637,9.562	h-1.373l-0.127,0.488l-0.142-0.488H9.7l0.875,3.113h1.162L12.637,9.562L12.637,9.562z"/></svg>